<?xml version="1.0" encoding="utf-8"?>
<!-- Generator: Adobe Illustrator 19.2.1, SVG Export Plug-In . SVG Version: 6.00 Build 0)  -->
<svg version="1.1" id="layer" xmlns="http://www.w3.org/2000/svg" xmlns:xlink="http://www.w3.org/1999/xlink" x="0px" y="0px"
	width="180" height="222" viewBox="0 0 652 652" style="enable-background:new 0 0 652 652;" xml:space="preserve">
<path d="M70.6,291.1h1v-13.3H20.1v0.9c5.9,4.8,6.8,6.2,6.8,11.5v64.3c0,5.3-0.8,6.7-6.8,11.5v0.9h26.8v-0.9c-6-4.5-7.1-6.2-7.1-11.3
	v-31.9h5.8c7.6,0,8.9,0.5,15.4,8.8h0.9v-20.9h-0.9c-6.5,8.2-7.8,8.8-15.4,8.8h-5.8v-38.4h8.8C52.2,281.1,55.2,282.3,70.6,291.1
	L70.6,291.1z M91,328.9H73.1l8.5-25.9c0.4,0.9,0.8,2,1.2,3.2L91,328.9z M105,336.5l-15.5-42.7H75.5v0.8c2,1.8,3.2,3.2,4.3,4.8
	l-11.6,35.3C66,341,64.7,343,59.4,348v0.9h16.3V348c-4.5-2.7-5.9-4.5-5.9-7.1c0-1.3,0.4-3,1.3-5.9l1-3.1H92l1.8,5
	c1.1,3.2,1.3,4.5,1.3,5.7c0,1.9-1.3,3.4-4.7,5.3v0.9h22.7V348C107.9,343.6,107,342.1,105,336.5L105,336.5z M139.2,291.1h1v-12.9
	c-5-0.9-10.6-1.6-15.7-1.6c-14.9,0-22.3,10-22.3,20.6c0,12.3,8,19.6,18.1,28.1c11,9.2,17.5,14.8,17.5,25.4c0,8.8-5.8,14.1-13.5,14.1
	c-6.8,0-12.1-2.7-26.3-13.8h-1.2l5.2,14.5c6.2,1.8,12.7,2.7,19.2,2.7c17,0,26.9-10.3,26.9-24.7c0-13.2-7.7-20-18.7-28.9
	c-10.1-8.2-17-14.8-17-24.3c0-6.2,4.1-10.4,10.4-10.4C127.1,279.9,130.1,281.6,139.2,291.1L139.2,291.1z M204.7,291.1h1v-13.3h-60.8
	v13.3h1c14.3-9.1,17.2-10.3,20.6-10.3h2.3v73.9c0,5.1-1,6.8-7.1,11.3v0.9h27.1v-0.9c-6-4.5-7.1-6.2-7.1-11.3v-73.9h2.3
	C187.4,280.9,190.3,282.1,204.7,291.1L204.7,291.1z M282.2,288.7h1v-11.4c-6-0.9-13.8-1.6-20.8-1.6c-31.6,0-50.3,17.6-50.3,46.8
	c0,28.7,17.9,46.4,49.1,46.4c8.1,0,15.4-1.2,21.2-2.8l2.3-12.7h-1c-11.7,9.9-16.9,12.2-25.3,12.2c-23.3,0-31.1-17.6-31.1-43.7
	c0-26.5,7.8-42.7,29.9-42.7C264.1,279.2,269.1,280.9,282.2,288.7L282.2,288.7z M279.2,322c0,14.7-1.3,24.4-11.9,24.4
	c-10.7,0-11.9-9.7-11.9-24.4c0-14.7,1.2-24.4,11.9-24.4C278,297.5,279.2,307.2,279.2,322z M291.8,322c0-15.5-9.2-27.2-24.5-27.2
	c-15.3,0-24.5,11.8-24.5,27.2c0,15.4,9.2,27.2,24.5,27.2C282.6,349.1,291.8,337.3,291.8,322z M346.5,366.8l26.5,0.2v-0.9
	c-5.9-4.8-6.8-6.2-6.8-11.5v-64.3c0-5.3,0.8-6.7,6.8-11.4v-0.9l-18.7-0.1l-20.8,65.9l-21.3-65.8h-18.9v0.9c3.6,3.1,5.8,5.1,7.4,7.2
	v62.3c0,7.2-0.9,10.1-7.6,17.8v0.9h21.2v-0.9c-8.9-7.4-10.2-10.3-10.2-17.8v-55.5c0.1,0.4,0.3,0.8,0.4,1.3l23.9,73.6h1l23.9-75.8
	v62.6c0,5.3-0.8,6.7-6.8,11.4C346.5,365.9,346.5,366.8,346.5,366.8z M423,305.1c0,16.7-3.9,23.7-16.7,23.7H399v-47.7h5.2
	C418.3,281.1,423,287.1,423,305.1z M436.9,304.5c0-20.1-14-26.7-33.1-26.7h-24.5v0.9c5.9,4.8,6.8,6.2,6.8,11.5v64.3
	c0,5.3-0.8,6.7-6.8,11.5v0.9H406v-0.9c-6-4.5-7.1-6.2-7.1-11.3v-22.7h7C422.7,332.1,436.9,324.9,436.9,304.5z M469.5,334.4h-25.2
	l12.4-44.9c0.3,0.8,0.5,1.6,0.8,2.5L469.5,334.4L469.5,334.4z M620.1,278.7v-0.9h-20.1v0.9c5.4,4.8,7.1,7.1,7.1,10.6
	c0,1.9-0.4,3.3-1.9,6.8l-11.6,27l-15.1-33.5c-1.2-2.6-1.6-4-1.6-5.3c0-2.4,1.3-3.7,5-5.6v-0.9h-44.6v0.9c10,7.4,11.3,10.3,11.3,18.4
	v51.3l-37.2-70.5h-18.5v0.9c3.9,3.3,6.1,5.4,8,7.9v61.8c0,6.7-0.7,9.6-6.1,17.6c-4.1-5.1-5-7.6-7.1-14.9l-21-73.3h-18.1v0.9
	c2.8,2.5,4.6,4.2,6,6.2L437,347.9c-2.5,9.1-4.5,11.9-11.2,18.2v0.9h21.6v-0.9c-6.2-4.7-8.1-7.1-8.1-11.1c0-1.6,0.4-3.9,1.3-7.1
	l2.8-10.1h27.1l3.8,13.3c1.2,4.2,1.6,5.9,1.6,7.6c0,2.3-1,3.9-5.5,7.4v0.9h45.2v-0.9c-10-7.4-11.3-10.3-11.3-17.6v-56.3
	c0.1,0.1,0.1,0.3,0.2,0.4l39.3,74.4h8.2v-69.9c0-7.4,0.7-10.3,5.9-18.3c3.3,4.1,5.5,7.5,8.2,13.6l16.1,35.5v27c0,5-1,6.8-7.1,11.3
	v0.9h27.1v-0.9c-6-4.5-7.1-6.2-7.1-11.3v-27.4l13.4-31.1C611.2,289.7,613.4,286.6,620.1,278.7L620.1,278.7z"/>
</svg>
